<svg version="1.1" xmlns="http://www.w3.org/2000/svg" viewBox="0 0 483 297.48985564829786" width="1449" height="892.4695669448936">
  <!-- svg-source:excalidraw -->
  
  <defs>
    <style class="style-fonts">
      @font-face {
        font-family: "Virgil";
        src: url("https://excalidraw.com/Virgil.woff2");
      }
      @font-face {
        font-family: "Cascadia";
        src: url("https://excalidraw.com/Cascadia.woff2");
      }
    </style>
  </defs>
  <g stroke-linecap="round"><g transform="translate(59 286) rotate(0 146.54900080326013 0.35140376659114736)"><path d="M-0.38 -0.74 C48.14 -0.49, 242.47 0.62, 291.19 0.88 M1.62 1.49 C50.52 1.46, 245.22 -0.36, 293.48 -0.79" stroke="#1864ab" stroke-width="1" fill="none"></path></g></g><mask></mask><g stroke-linecap="round"><g transform="translate(58 286) rotate(0 16.34099775079636 -32.06293899081646)"><path d="M1.1 0.97 C6.22 -9.68, 25 -54.04, 30.18 -65.1 M0.22 0.43 C5.76 -9.92, 27.16 -52.83, 32.46 -63.61" stroke="#1864ab" stroke-width="1" fill="none"></path></g></g><mask></mask><g stroke-linecap="round"><g transform="translate(352 285) rotate(0 -16.69998090040872 -33.59858078099785)"><path d="M0.77 0.72 C-4.71 -10.68, -27.78 -56.59, -33.49 -67.92 M-0.29 0.05 C-5.82 -11.18, -28.55 -54.79, -34.17 -66.34" stroke="#1864ab" stroke-width="1" fill="none"></path></g></g><mask></mask><g stroke-linecap="round"><g transform="translate(91 223) rotate(0 114.56596542952582 -1.003460936127226)"><path d="M0.96 0.66 C38.6 0.48, 189.05 -0.76, 226.96 -1.05 M0.01 -0.04 C37.9 -0.54, 191.15 -2.18, 229.12 -2.67" stroke="#1864ab" stroke-width="1" fill="none"></path></g></g><mask></mask><g stroke-linecap="round"><g transform="translate(91 222) rotate(0 16.46865670038386 -32.05109902543944)"><path d="M1.11 0.13 C6.49 -10.31, 27.32 -51.93, 32.71 -62.42 M0.23 -0.85 C5.4 -11.66, 26.15 -54.15, 31.61 -64.23" stroke="#1864ab" stroke-width="1" fill="none"></path></g></g><mask></mask><g stroke-linecap="round"><g transform="translate(322 223) rotate(0 -18.312110343743143 -33.58766917837784)"><path d="M0.56 -0.81 C-5.55 -12.05, -30.11 -57.28, -36.15 -68.55 M-0.61 1.38 C-6.93 -9.61, -31.23 -55.84, -37.18 -67.31" stroke="#1864ab" stroke-width="1" fill="none"></path></g></g><mask></mask><g stroke-linecap="round"><g transform="translate(286 155) rotate(0 -80.94045830857937 1.7772442138381166)"><path d="M0.13 0.16 C-26.86 0.66, -134.54 2.75, -161.39 3.22 M-1.26 -0.8 C-28.41 -0.19, -135.37 3.59, -162.01 4.35" stroke="#1864ab" stroke-width="1" fill="none"></path></g></g><mask></mask><g stroke-linecap="round"><g transform="translate(124 159) rotate(0 16.691870393333943 -30.81059725227766)"><path d="M0.21 0.38 C5.93 -9.53, 28.73 -50.02, 34.52 -60.27 M-1.13 -0.46 C4.37 -10.64, 27.44 -52.12, 33.32 -62" stroke="#1864ab" stroke-width="1" fill="none"></path></g></g><mask></mask><g stroke-linecap="round"><g transform="translate(159 98) rotate(0 16.491990625988706 28.222144061289725)"><path d="M0.3 -0.05 C5.87 9.36, 28.66 46.48, 33.98 56.01 M-1 -1.12 C4.45 8.54, 27.59 48.14, 33.55 57.56" stroke="#1864ab" stroke-width="1" fill="none"></path></g></g><mask></mask><g stroke-linecap="round"><g transform="translate(286 155) rotate(0 -10.935843935236335 -32.246050981562576)"><path d="M0.81 -1.15 C-2.93 -11.81, -18.69 -52.86, -22.68 -63.5 M-0.22 0.87 C-3.55 -10.2, -16.89 -54.52, -20.33 -65.36" stroke="#1864ab" stroke-width="1" fill="none"></path></g></g><mask></mask><g stroke-linecap="round"><g transform="translate(265 91) rotate(0 -23.005168187934885 32.16425543688237)"><path d="M-0.71 -0.81 C-8.5 10.01, -38.85 54.43, -46.81 65.14 M1.12 1.38 C-6.72 11.87, -38.7 53.09, -47.13 63.62" stroke="#1864ab" stroke-width="1" fill="none"></path></g></g><mask></mask><g stroke-linecap="round"><g transform="translate(238 126) rotate(0 -12.316229585185624 -31.218306496366836)"><path d="M-1.1 -0.54 C-5.15 -10.74, -19.85 -51.64, -23.53 -61.89" stroke="#1864ab" stroke-width="1.5" fill="none" stroke-dasharray="8 9"></path></g></g><mask></mask><g stroke-linecap="round"><g transform="translate(214 65) rotate(0 -15.838540508970652 32.811091479286574)"><path d="M0.91 -1.14 C-4.42 10.12, -27.19 55.64, -32.58 66.76" stroke="#1864ab" stroke-width="1.5" fill="none" stroke-dasharray="8 9"></path></g></g><mask></mask><g stroke-linecap="round"><g transform="translate(166 105) rotate(0 11.722137507423781 -28.900379147753142)"><path d="M0.13 -0.59 C4 -10.14, 19.39 -47.79, 23.32 -57.21" stroke="#1864ab" stroke-width="1.5" fill="none" stroke-dasharray="8 9"></path></g></g><mask></mask><g stroke-linecap="round"><g transform="translate(189 48) rotate(0 7.307026610150899 18.981498595699662)"><path d="M-0.42 0.01 C2.16 6.41, 12.19 31.45, 15.03 37.96" stroke="#1864ab" stroke-width="1.5" fill="none" stroke-dasharray="8 9"></path></g></g><mask></mask><g transform="translate(107 243) rotate(0 27.5 13)"><text x="0" y="18" font-family="Virgil, Segoe UI Emoji" font-size="20px" fill="#e67700" text-anchor="start" style="white-space: pre;" direction="ltr">UNIT</text></g><g transform="translate(252 256) rotate(0 40 13)"><text x="0" y="18" font-family="Virgil, Segoe UI Emoji" font-size="20px" fill="#e67700" text-anchor="start" style="white-space: pre;" direction="ltr">0$/item</text></g><g transform="translate(111 184) rotate(0 49.5 13)"><text x="0" y="18" font-family="Virgil, Segoe UI Emoji" font-size="20px" fill="#e67700" text-anchor="start" style="white-space: pre;" direction="ltr">Component</text></g><g transform="translate(232 185) rotate(0 36 13)"><text x="0" y="18" font-family="Virgil, Segoe UI Emoji" font-size="20px" fill="#e67700" text-anchor="start" style="white-space: pre;" direction="ltr">1$/item</text></g><g transform="translate(32 112) rotate(0 39 25.5)"><text x="0" y="18.5" font-family="Virgil, Segoe UI Emoji" font-size="20px" fill="#e67700" text-anchor="start" style="white-space: pre;" direction="ltr">Real</text><text x="0" y="44" font-family="Virgil, Segoe UI Emoji" font-size="20px" fill="#e67700" text-anchor="start" style="white-space: pre;" direction="ltr">systems</text></g><g stroke-linecap="round"><g transform="translate(90 134) rotate(0 37.96036795638503 -7.1650100119144895)"><path d="M0.87 -1.15 C4.37 -4.2, 7.94 -18.22, 20.31 -17.5 C32.67 -16.77, 66.04 -0.13, 75.05 3.19" stroke="#e67700" stroke-width="1.5" fill="none" stroke-dasharray="8 9"></path></g><g transform="translate(90 134) rotate(0 37.96036795638503 -7.1650100119144895)"><path d="M44.86 0.4 C52.85 3.51, 60.88 2.8, 74.15 4.16" stroke="#e67700" stroke-width="1.5" fill="none"></path></g><g transform="translate(90 134) rotate(0 37.96036795638503 -7.1650100119144895)"><path d="M52.52 -17.39 C58.76 -9.9, 64.94 -6.27, 74.15 4.16" stroke="#e67700" stroke-width="1.5" fill="none"></path></g></g><mask></mask><g transform="translate(10 166) rotate(0 41 13)"><text x="0" y="18" font-family="Virgil, Segoe UI Emoji" font-size="20px" fill="#e67700" text-anchor="start" style="white-space: pre;" direction="ltr">$$/item</text></g><g transform="translate(345 123) rotate(0 51.5 13)"><text x="0" y="18" font-family="Virgil, Segoe UI Emoji" font-size="20px" fill="#e67700" text-anchor="start" style="white-space: pre;" direction="ltr">Real data</text></g><g stroke-linecap="round"><g transform="translate(333 132) rotate(0 -36.61008467338979 -8.270377595329677)"><path d="M0.79 1.05 C-3.67 -2.08, -14.19 -20.27, -26.65 -19.89 C-39.12 -19.5, -66.04 -0.29, -74.01 3.35" stroke="#e67700" stroke-width="1.5" fill="none" stroke-dasharray="8 9"></path></g><g transform="translate(333 132) rotate(0 -36.61008467338979 -8.270377595329677)"><path d="M-54.69 -18.61 C-60.25 -9.27, -66.98 -3.6, -75.73 1.53" stroke="#e67700" stroke-width="1.5" fill="none"></path></g><g transform="translate(333 132) rotate(0 -36.61008467338979 -8.270377595329677)"><path d="M-45.38 -2.44 C-53.69 1.94, -63.31 2.57, -75.73 1.53" stroke="#e67700" stroke-width="1.5" fill="none"></path></g></g><mask></mask><g transform="translate(375 150) rotate(0 49 13)"><text x="0" y="18" font-family="Virgil, Segoe UI Emoji" font-size="20px" fill="#e67700" text-anchor="start" style="white-space: pre;" direction="ltr">$$$/item</text></g><g transform="translate(62 10) rotate(0 48 13)"><text x="0" y="18" font-family="Virgil, Segoe UI Emoji" font-size="20px" fill="#e67700" text-anchor="start" style="white-space: pre;" direction="ltr">Monitoring</text></g><g stroke-linecap="round"><g transform="translate(148 44) rotate(0 18.711553928628575 21.419688829407107)"><path d="M0.33 0.21 C6.42 7.2, 30.83 35.36, 37.09 42.63" stroke="#e67700" stroke-width="1.5" fill="none" stroke-dasharray="8 9"></path></g><g transform="translate(148 44) rotate(0 18.711553928628575 21.419688829407107)"><path d="M12.67 28.96 C20.4 35.07, 30.96 39.86, 39.06 44.46" stroke="#e67700" stroke-width="1.5" fill="none"></path></g><g transform="translate(148 44) rotate(0 18.711553928628575 21.419688829407107)"><path d="M27.35 16.27 C30.04 26.84, 35.49 36.05, 39.06 44.46" stroke="#e67700" stroke-width="1.5" fill="none"></path></g></g><mask></mask><g transform="translate(251 21) rotate(0 59.5 13)"><text x="0" y="18" font-family="Virgil, Segoe UI Emoji" font-size="20px" fill="#e67700" text-anchor="start" style="white-space: pre;" direction="ltr">Performance</text></g><g stroke-linecap="round"><g transform="translate(251 56) rotate(0 -18.36306052468717 25.805412825569505)"><path d="M-0.56 0.8 C-6.58 9.29, -30.38 42.71, -36.16 50.81" stroke="#e67700" stroke-width="1.5" fill="none" stroke-dasharray="8 9"></path></g><g transform="translate(251 56) rotate(0 -18.36306052468717 25.805412825569505)"><path d="M-26.83 19.96 C-29.21 29.99, -33.95 37.35, -37.14 50.03" stroke="#e67700" stroke-width="1.5" fill="none"></path></g><g transform="translate(251 56) rotate(0 -18.36306052468717 25.805412825569505)"><path d="M-10.12 31.88 C-17.44 38.29, -27.14 42.11, -37.14 50.03" stroke="#e67700" stroke-width="1.5" fill="none"></path></g></g><mask></mask></svg>